<svg width="64" height="58" viewBox="0 0 64 58" fill="none" xmlns="http://www.w3.org/2000/svg">
<path d="M30.701 3.25C31.2783 2.25 32.7217 2.25 33.299 3.25L57.5478 45.25C58.1251 46.25 57.4034 47.5 56.2487 47.5H7.75129C6.59659 47.5 5.8749 46.25 6.45225 45.25L30.701 3.25Z" stroke="#ED962F"/>
<path d="M32 17C31.7348 17 31.4804 17.0903 31.2929 17.251C31.1054 17.4118 31 17.6298 31 17.8571V34.9999C31 35.2272 31.1054 35.4452 31.2929 35.606C31.4804 35.7667 31.7348 35.857 32 35.857C32.2652 35.857 32.5196 35.7667 32.7071 35.606C32.8946 35.4452 33 35.2272 33 34.9999V17.8571C33 17.6298 32.8946 17.4118 32.7071 17.251C32.5196 17.0903 32.2652 17 32 17Z" fill="white"/>
<path d="M32 41.0004C32.5523 41.0004 33 40.6166 33 40.1433C33 39.6699 32.5523 39.2861 32 39.2861C31.4477 39.2861 31 39.6699 31 40.1433C31 40.6166 31.4477 41.0004 32 41.0004Z" fill="white"/>
</svg>
