<svg width="15" height="12" viewBox="0 0 15 12" fill="none" xmlns="http://www.w3.org/2000/svg">
<path d="M5.89072 10.5293C6.19588 10.8714 6.19588 11.41 5.89072 11.7521C5.58557 12.0826 5.10515 12.0826 4.8 11.7521L0.228867 6.62808C0.087286 6.46935 0 6.24898 0 6.00472C0 5.76046 0.087286 5.54009 0.228867 5.38059L4.8 0.256586C5.10515 -0.0855285 5.58557 -0.0855285 5.89072 0.256586C6.19588 0.5987 6.19588 1.1373 5.89072 1.47941L2.61787 5.13633L14.2364 5.13633C14.6619 5.13556 15 5.52699 15 6.00395C15 6.4809 14.6619 6.86 14.2364 6.86L2.61856 6.86L5.89072 10.5293Z" fill="#2F80ED"/>
</svg>
