<svg width="12" height="12" viewBox="0 0 12 12" fill="none" xmlns="http://www.w3.org/2000/svg">
<path d="M11.8536 6.35352L9.22931 8.97852C9.18289 9.02495 9.12777 9.06179 9.06711 9.08693C9.00645 9.11206 8.94143 9.125 8.87577 9.12501C8.8101 9.12502 8.74508 9.11209 8.68442 9.08698C8.62375 9.06186 8.56862 9.02503 8.52219 8.97861C8.47575 8.93218 8.43891 8.87707 8.41378 8.81641C8.38864 8.75574 8.3757 8.69073 8.37569 8.62506C8.37568 8.5594 8.38861 8.49438 8.41373 8.43371C8.43885 8.37305 8.47567 8.31792 8.52209 8.27148L10.2931 6.5H4.5C4.36739 6.5 4.24021 6.44732 4.14645 6.35355C4.05268 6.25979 4 6.13261 4 6C4 5.86739 4.05268 5.74021 4.14645 5.64645C4.24021 5.55268 4.36739 5.5 4.5 5.5H10.2931L8.52209 3.72852C8.42834 3.63473 8.37567 3.50755 8.37569 3.37493C8.37571 3.24232 8.42841 3.11515 8.52219 3.02139C8.61597 2.92763 8.74316 2.87497 8.87577 2.87499C9.00838 2.87501 9.13555 2.9277 9.22931 3.02148L11.8536 5.64648C11.9473 5.74025 12 5.86741 12 6C12 6.13259 11.9473 6.25975 11.8536 6.35352ZM4.5 11H1V1H4.5C4.63261 1 4.75979 0.947321 4.85355 0.853553C4.94732 0.759785 5 0.632608 5 0.5C5 0.367392 4.94732 0.240215 4.85355 0.146447C4.75979 0.0526785 4.63261 0 4.5 0H1C0.734877 0.000303211 0.480699 0.105757 0.293228 0.293228C0.105757 0.480699 0.000303211 0.734877 0 1V11C0.000303211 11.2651 0.105757 11.5193 0.293228 11.7068C0.480699 11.8942 0.734877 11.9997 1 12H4.5C4.63261 12 4.75979 11.9473 4.85355 11.8536C4.94732 11.7598 5 11.6326 5 11.5C5 11.3674 4.94732 11.2402 4.85355 11.1464C4.75979 11.0527 4.63261 11 4.5 11Z" fill="#525E74"/>
</svg>
