<svg width="160" height="48" viewBox="0 0 160 48" fill="none" xmlns="http://www.w3.org/2000/svg">
<g clip-path="url(#clip0_754_4761)">
<path d="M59.4135 11.9643V25.5081H45.9536V13.7132C45.9536 12.7438 45.167 11.9575 44.1973 11.9575H39.6406V44.3801C39.6406 45.3494 40.4272 46.1357 41.3969 46.1357H45.9536V31.0125H59.4202V44.3733C59.4067 45.3426 60.1797 46.1425 61.1494 46.1561H61.1765H65.7332V13.7132C65.7332 12.7438 64.9466 11.9575 63.977 11.9575H59.4135V11.9643ZM86.1434 20.4377V36.6862C86.157 38.164 85.384 39.5401 84.1092 40.2993C80.5425 42.36 76.8469 39.7773 76.8469 36.388V22.1934C76.8469 21.224 76.0604 20.4377 75.0907 20.4377H70.534V36.9709C70.5476 42.299 74.8602 46.6103 80.1899 46.6374H82.7801C88.1166 46.6238 92.4428 42.299 92.4564 36.9642V22.1934C92.4564 21.224 91.6698 20.4377 90.7001 20.4377H86.1434Z" fill="white"/>
<path d="M155.083 46.156H159.64V23.1356C159.64 22.1662 158.853 21.3799 157.884 21.3799H153.327V44.3868C153.32 45.3562 154.1 46.1493 155.07 46.156H155.083Z" fill="#2CA6E0"/>
<path d="M159.736 16.7754C160.48 14.9802 159.628 12.9222 157.832 12.1786C156.036 11.435 153.977 12.2874 153.234 14.0826C152.49 15.8778 153.342 17.9358 155.138 18.6794C156.934 19.423 158.993 18.5705 159.736 16.7754Z" fill="#2CA6E0"/>
<path d="M108.744 20.4243C102.133 20.4243 96.7217 25.1491 96.7217 31.7583V35.3307C96.7217 41.9399 102.133 46.6376 108.744 46.6376C115.355 46.6376 120.766 41.9399 120.766 35.3307V31.7583C120.773 25.1491 115.362 20.4243 108.744 20.4243ZM114.426 35.7577C114.426 38.8827 111.87 40.9638 108.737 40.9638C105.605 40.9638 103.055 38.8827 103.055 35.7577V31.2974C103.055 28.1724 105.611 26.0913 108.737 26.0913C111.863 26.0913 114.426 28.1724 114.426 31.2974V35.7577Z" fill="white"/>
<path d="M137.054 20.4244C135.074 20.4108 133.121 20.8582 131.337 21.7191V13.7474C131.337 12.778 130.551 11.9917 129.581 11.9917H125.024V35.3308C125.024 41.94 130.436 46.6377 137.047 46.6377C143.658 46.6377 149.069 41.94 149.069 35.3308V31.7584C149.076 25.1492 143.678 20.4244 137.054 20.4244ZM142.743 35.7578C142.743 38.8828 140.186 40.9639 137.054 40.9639C133.928 40.9639 131.371 38.8828 131.371 35.7578V31.2974C131.371 28.1725 133.928 26.0914 137.054 26.0914C140.18 26.0914 142.743 28.1725 142.743 31.2974V35.7578Z" fill="#2CA6E0"/>
<path d="M20.5593 14.764C20.5593 7.87687 17.2028 1.9455 14.6464 0.0203528C14.6464 0.0203528 14.4498 -0.0881064 14.4701 0.18982C14.2599 13.4964 7.45878 17.1027 3.72256 21.9562C-4.90263 33.1682 3.11228 45.458 11.2899 47.7289C15.8466 49.0033 10.2321 45.4783 9.50658 38.0421C8.6183 29.0671 20.5593 22.2071 20.5593 14.764Z" fill="white"/>
<path d="M24.4784 19.2988C24.4242 19.2649 24.3496 19.2378 24.3021 19.3259C24.1597 21.0003 22.4509 24.5794 20.2811 27.8739C12.9239 39.0316 17.1144 44.4139 19.4742 47.3084C20.8439 48.9827 19.4742 47.3084 22.8917 45.5934C27.1161 43.031 29.8556 38.5978 30.2624 33.6764C30.9337 25.7453 26.1736 20.7494 24.4784 19.2988Z" fill="#2CA6E0"/>
</g>
<defs>
<clipPath id="clip0_754_4761">
<rect width="160" height="48" fill="white"/>
</clipPath>
</defs>
</svg>
