<svg width="53" height="17" viewBox="0 0 53 17" fill="none" xmlns="http://www.w3.org/2000/svg">
<path d="M15.233 14V3.81818H16.4659V8.35227H21.8949V3.81818H23.1278V14H21.8949V9.44602H16.4659V14H15.233ZM30.2496 10.8778V6.36364H31.4229V14H30.2496V12.7074H30.1701C29.9911 13.0952 29.7127 13.425 29.3349 13.6967C28.957 13.9652 28.4798 14.0994 27.9031 14.0994C27.4258 14.0994 27.0015 13.995 26.6303 13.7862C26.2591 13.5741 25.9674 13.2559 25.7553 12.8317C25.5432 12.4041 25.4371 11.8655 25.4371 11.2159V6.36364H26.6104V11.1364C26.6104 11.6932 26.7662 12.1373 27.0778 12.4688C27.3926 12.8002 27.7937 12.9659 28.2809 12.9659C28.5726 12.9659 28.8692 12.8913 29.1708 12.7422C29.4757 12.593 29.7309 12.3643 29.9364 12.0561C30.1452 11.7479 30.2496 11.3551 30.2496 10.8778ZM36.6742 14.1591C35.9848 14.1591 35.3799 13.995 34.8596 13.6669C34.3425 13.3388 33.9382 12.8797 33.6465 12.2898C33.3581 11.6998 33.214 11.0104 33.214 10.2216C33.214 9.42614 33.3581 8.73177 33.6465 8.13849C33.9382 7.54522 34.3425 7.08452 34.8596 6.75639C35.3799 6.42827 35.9848 6.2642 36.6742 6.2642C37.3636 6.2642 37.9668 6.42827 38.4838 6.75639C39.0042 7.08452 39.4086 7.54522 39.6969 8.13849C39.9886 8.73177 40.1344 9.42614 40.1344 10.2216C40.1344 11.0104 39.9886 11.6998 39.6969 12.2898C39.4086 12.8797 39.0042 13.3388 38.4838 13.6669C37.9668 13.995 37.3636 14.1591 36.6742 14.1591ZM36.6742 13.1051C37.1979 13.1051 37.6287 12.9709 37.9668 12.7024C38.3049 12.4339 38.5551 12.081 38.7175 11.6435C38.8799 11.206 38.9611 10.732 38.9611 10.2216C38.9611 9.71117 38.8799 9.23556 38.7175 8.79474C38.5551 8.35393 38.3049 7.99763 37.9668 7.72585C37.6287 7.45407 37.1979 7.31818 36.6742 7.31818C36.1505 7.31818 35.7196 7.45407 35.3816 7.72585C35.0435 7.99763 34.7933 8.35393 34.6309 8.79474C34.4685 9.23556 34.3873 9.71117 34.3873 10.2216C34.3873 10.732 34.4685 11.206 34.6309 11.6435C34.7933 12.081 35.0435 12.4339 35.3816 12.7024C35.7196 12.9709 36.1505 13.1051 36.6742 13.1051ZM42.0845 14V3.81818H43.2578V7.5767H43.3572C43.4434 7.44413 43.5627 7.27509 43.7152 7.0696C43.871 6.8608 44.093 6.67519 44.3814 6.51278C44.6731 6.34706 45.0675 6.2642 45.5646 6.2642C46.2076 6.2642 46.7744 6.42495 47.2649 6.74645C47.7554 7.06794 48.1383 7.52367 48.4134 8.11364C48.6884 8.7036 48.826 9.39962 48.826 10.2017C48.826 11.0104 48.6884 11.7114 48.4134 12.3047C48.1383 12.8946 47.7571 13.352 47.2699 13.6768C46.7827 13.9983 46.2209 14.1591 45.5845 14.1591C45.094 14.1591 44.7012 14.0779 44.4062 13.9155C44.1113 13.7498 43.8842 13.5625 43.7251 13.3537C43.5661 13.1416 43.4434 12.9659 43.3572 12.8267H43.218V14H42.0845ZM43.2379 10.1818C43.2379 10.7585 43.3224 11.2673 43.4915 11.7081C43.6605 12.1456 43.9074 12.4886 44.2322 12.7372C44.5571 12.9825 44.9548 13.1051 45.4254 13.1051C45.916 13.1051 46.3253 12.9759 46.6534 12.7173C46.9848 12.4555 47.2334 12.1042 47.3991 11.6634C47.5682 11.2192 47.6527 10.7254 47.6527 10.1818C47.6527 9.64489 47.5698 9.16098 47.4041 8.73011C47.2417 8.29593 46.9948 7.95289 46.6634 7.70099C46.3352 7.44579 45.9226 7.31818 45.4254 7.31818C44.9482 7.31818 44.5471 7.43916 44.2223 7.68111C43.8975 7.91974 43.6522 8.2545 43.4865 8.68537C43.3208 9.11293 43.2379 9.61174 43.2379 10.1818ZM50.6207 14V6.36364H51.794V14H50.6207ZM51.2173 5.09091C50.9886 5.09091 50.7914 5.01302 50.6257 4.85724C50.4633 4.70147 50.3821 4.5142 50.3821 4.29545C50.3821 4.0767 50.4633 3.88944 50.6257 3.73366C50.7914 3.57789 50.9886 3.5 51.2173 3.5C51.446 3.5 51.6416 3.57789 51.804 3.73366C51.9697 3.88944 52.0526 4.0767 52.0526 4.29545C52.0526 4.5142 51.9697 4.70147 51.804 4.85724C51.6416 5.01302 51.446 5.09091 51.2173 5.09091Z" fill="white"/>
<path d="M7 4.92302C7 2.62659 5.8568 0.648863 4.98613 0.00694917C4.98613 0.00694917 4.91915 -0.029215 4.92608 0.0634557C4.85449 4.50035 2.53807 5.70281 1.26554 7.32116C-1.67212 11.0596 1.05769 15.1575 3.84293 15.9147C5.39491 16.3396 3.48265 15.1643 3.23554 12.6848C2.93299 9.69217 7 7.40478 7 4.92302Z" fill="white"/>
<path d="M7.94011 6.01121C7.921 5.99941 7.89473 5.98997 7.87801 6.02064C7.82786 6.60334 7.22601 7.84894 6.46176 8.99546C3.87047 12.8785 5.34643 14.7517 6.17755 15.759C6.65999 16.3417 6.17755 15.759 7.38125 15.1621C8.86915 14.2704 9.83402 12.7276 9.97732 11.0148C10.2138 8.25471 8.53718 6.51605 7.94011 6.01121Z" fill="#2CA6E0"/>
</svg>
