<svg width="128" height="32" viewBox="0 0 128 32" fill="none" xmlns="http://www.w3.org/2000/svg">
<path d="M41.1445 21.7959V9.90479H46.8778C48.7949 9.90479 49.7534 10.8354 49.7534 12.6966V13.7996C49.7534 14.1902 49.635 14.5234 49.3984 14.7991L48.7771 15.5229L49.5226 16.1261C49.9131 16.4363 50.1084 16.8959 50.1084 17.5048V19.0041C50.1084 20.8653 49.1499 21.7959 47.2328 21.7959H41.1445ZM43.3101 19.9002H47.1618C47.6825 19.9002 47.9429 19.6475 47.9429 19.142V17.3324C47.9429 16.8269 47.6825 16.5742 47.1618 16.5742H43.3101V19.9002ZM43.3101 14.6785H46.8068C47.3275 14.6785 47.5879 14.4257 47.5879 13.9202V12.5588C47.5879 12.0532 47.3275 11.8005 46.8068 11.8005H43.3101V14.6785Z" fill="white"/>
<path d="M52.7334 21.7959V9.90479H54.8989V21.7959H52.7334Z" fill="white"/>
<path d="M56.8952 11.8005V9.90479H66.782V11.8005H62.9125V21.7959H60.747V11.8005H56.8952Z" fill="white"/>
<path d="M68.6093 19.0041V12.6966C68.6093 10.8354 69.5678 9.90479 71.4848 9.90479H75.5851C77.5021 9.90479 78.4606 10.8354 78.4606 12.6966V19.0041C78.4606 20.5896 77.7624 21.4972 76.3661 21.727L77.5198 23.9329L77.2536 24.381H75.3898L74.0408 21.7959H71.4848C69.5678 21.7959 68.6093 20.8653 68.6093 19.0041ZM70.7748 19.142C70.7748 19.6475 71.0351 19.9002 71.5558 19.9002H75.5141C76.0347 19.9002 76.2951 19.6475 76.2951 19.142V12.5588C76.2951 12.0532 76.0347 11.8005 75.5141 11.8005H71.5558C71.0351 11.8005 70.7748 12.0532 70.7748 12.5588V19.142Z" fill="white"/>
<path d="M81.2572 19.0041V9.90479H83.4227V19.142C83.4227 19.6475 83.683 19.9002 84.2037 19.9002H87.807C88.3277 19.9002 88.588 19.6475 88.588 19.142V9.90479H90.7535V19.0041C90.7535 20.8653 89.795 21.7959 87.878 21.7959H84.1327C82.2157 21.7959 81.2572 20.8653 81.2572 19.0041Z" fill="white"/>
<path d="M92.561 21.3823L96.3418 9.90479H99.6966L103.477 21.3823L103.193 21.7959H101.401L100.549 19.1592H95.4721L94.6378 21.7959H92.845L92.561 21.3823ZM96.0756 17.2635H99.9629L98.1879 11.8005H97.8506L96.0756 17.2635Z" fill="white"/>
<path d="M105.391 21.7959V9.90479H107.752L113.201 18.4009V9.90479H115.349V21.7959H113.006L107.556 13.2998V21.7959H105.391Z" fill="white"/>
<path d="M117.353 11.8005V9.90479H127.24V11.8005H123.37V21.7959H121.205V11.8005H117.353Z" fill="white"/>
<circle cx="16" cy="16" r="16" fill="url(#paint0_linear_974_15335)"/>
<path fill-rule="evenodd" clip-rule="evenodd" d="M21.2335 22.0877C20.8066 22.6862 20.5504 23.419 20.5504 24.2129C20.5504 24.787 20.6846 25.3305 20.9163 25.8129C19.4341 26.5641 17.7566 26.9855 15.9815 26.9855C9.91823 26.9855 5.00781 22.0694 5.00781 15.9992C5.00781 9.92897 9.92433 5.00684 15.9876 5.00684C22.0509 5.00684 26.9614 9.92286 26.9614 15.9931C26.9614 17.7702 26.5405 19.4496 25.7902 20.9336C25.3693 20.7259 24.8996 20.5977 24.4055 20.5732C23.0349 20.5732 22.0578 21.0679 21.2335 22.0877Z" fill="white"/>
<path d="M24.1912 26.9855C25.7207 26.9855 26.9606 25.7442 26.9606 24.2129C26.9606 22.6817 25.7207 21.4404 24.1912 21.4404C22.6618 21.4404 21.4219 22.6817 21.4219 24.2129C21.4219 25.7442 22.6618 26.9855 24.1912 26.9855Z" fill="white"/>
<path fill-rule="evenodd" clip-rule="evenodd" d="M17.6034 9.734C17.0849 9.59965 16.542 9.52637 15.9869 9.52637C15.4196 9.52637 14.8706 9.59965 14.3521 9.734C11.5767 10.4607 9.5332 12.9829 9.5332 15.9874C9.5332 19.3951 12.1623 22.1859 15.4989 22.4302C15.6575 22.4424 15.8222 22.4485 15.9869 22.4485C16.1455 22.4485 16.298 22.4424 16.4505 22.4302C19.7993 22.192 22.4406 19.3951 22.4406 15.9813C22.4406 12.9829 20.3849 10.4546 17.6034 9.734ZM16.6091 11.218C13.6323 11.218 11.2168 13.6363 11.2168 16.6164C11.2168 17.9477 11.6987 19.1691 12.4978 20.1096C11.3327 19.1203 10.5946 17.6424 10.5946 15.9935C10.5946 13.0134 13.0101 10.5951 15.9869 10.5951C17.6339 10.5951 19.11 11.334 20.0982 12.5004C19.1588 11.7004 17.9389 11.218 16.6091 11.218ZM17.6034 9.734C17.0849 9.59965 16.542 9.52637 15.9869 9.52637C15.4196 9.52637 14.8706 9.59965 14.3521 9.734C11.5767 10.4607 9.5332 12.9829 9.5332 15.9874C9.5332 19.3951 12.1623 22.1859 15.4989 22.4302C15.6575 22.4424 15.8222 22.4485 15.9869 22.4485C16.1455 22.4485 16.298 22.4424 16.4505 22.4302C19.7993 22.192 22.4406 19.3951 22.4406 15.9813C22.4406 12.9829 20.3849 10.4546 17.6034 9.734ZM16.6091 11.218C13.6323 11.218 11.2168 13.6363 11.2168 16.6164C11.2168 17.9477 11.6987 19.1691 12.4978 20.1096C11.3327 19.1203 10.5946 17.6424 10.5946 15.9935C10.5946 13.0134 13.0101 10.5951 15.9869 10.5951C17.6339 10.5951 19.11 11.334 20.0982 12.5004C19.1588 11.7004 17.9389 11.218 16.6091 11.218ZM17.6034 9.734C17.0849 9.59965 16.542 9.52637 15.9869 9.52637C15.4196 9.52637 14.8706 9.59965 14.3521 9.734C11.5767 10.4607 9.5332 12.9829 9.5332 15.9874C9.5332 19.3951 12.1623 22.1859 15.4989 22.4302C15.6575 22.4424 15.8222 22.4485 15.9869 22.4485C16.1455 22.4485 16.298 22.4424 16.4505 22.4302C19.7993 22.192 22.4406 19.3951 22.4406 15.9813C22.4406 12.9829 20.3849 10.4546 17.6034 9.734ZM16.6091 11.218C13.6323 11.218 11.2168 13.6363 11.2168 16.6164C11.2168 17.9477 11.6987 19.1691 12.4978 20.1096C11.3327 19.1203 10.5946 17.6424 10.5946 15.9935C10.5946 13.0134 13.0101 10.5951 15.9869 10.5951C17.6339 10.5951 19.11 11.334 20.0982 12.5004C19.1588 11.7004 17.9389 11.218 16.6091 11.218ZM17.6034 9.734C17.0849 9.59965 16.542 9.52637 15.9869 9.52637C15.4196 9.52637 14.8706 9.59965 14.3521 9.734C11.5767 10.4607 9.5332 12.9829 9.5332 15.9874C9.5332 19.3951 12.1623 22.1859 15.4989 22.4302C15.6575 22.4424 15.8222 22.4485 15.9869 22.4485C16.1455 22.4485 16.298 22.4424 16.4505 22.4302C19.7993 22.192 22.4406 19.3951 22.4406 15.9813C22.4406 12.9829 20.3849 10.4546 17.6034 9.734ZM16.6091 11.218C13.6323 11.218 11.2168 13.6363 11.2168 16.6164C11.2168 17.9477 11.6987 19.1691 12.4978 20.1096C11.3327 19.1203 10.5946 17.6424 10.5946 15.9935C10.5946 13.0134 13.0101 10.5951 15.9869 10.5951C17.6339 10.5951 19.11 11.334 20.0982 12.5004C19.1588 11.7004 17.9389 11.218 16.6091 11.218ZM17.6034 9.734C17.0849 9.59965 16.542 9.52637 15.9869 9.52637C15.4196 9.52637 14.8706 9.59965 14.3521 9.734C11.5767 10.4607 9.5332 12.9829 9.5332 15.9874C9.5332 19.3951 12.1623 22.1859 15.4989 22.4302C15.6575 22.4424 15.8222 22.4485 15.9869 22.4485C16.1455 22.4485 16.298 22.4424 16.4505 22.4302C19.7993 22.192 22.4406 19.3951 22.4406 15.9813C22.4406 12.9829 20.3849 10.4546 17.6034 9.734ZM16.6091 11.218C13.6323 11.218 11.2168 13.6363 11.2168 16.6164C11.2168 17.9477 11.6987 19.1691 12.4978 20.1096C11.3327 19.1203 10.5946 17.6424 10.5946 15.9935C10.5946 13.0134 13.0101 10.5951 15.9869 10.5951C17.6339 10.5951 19.11 11.334 20.0982 12.5004C19.1588 11.7004 17.9389 11.218 16.6091 11.218ZM17.6034 9.734C17.0849 9.59965 16.542 9.52637 15.9869 9.52637C15.4196 9.52637 14.8706 9.59965 14.3521 9.734C11.5767 10.4607 9.5332 12.9829 9.5332 15.9874C9.5332 19.3951 12.1623 22.1859 15.4989 22.4302C15.6575 22.4424 15.8222 22.4485 15.9869 22.4485C16.1455 22.4485 16.298 22.4424 16.4505 22.4302C19.7993 22.192 22.4406 19.3951 22.4406 15.9813C22.4406 12.9829 20.3849 10.4546 17.6034 9.734ZM16.6091 11.218C13.6323 11.218 11.2168 13.6363 11.2168 16.6164C11.2168 17.9477 11.6987 19.1691 12.4978 20.1096C11.3327 19.1203 10.5946 17.6424 10.5946 15.9935C10.5946 13.0134 13.0101 10.5951 15.9869 10.5951C17.6339 10.5951 19.11 11.334 20.0982 12.5004C19.1588 11.7004 17.9389 11.218 16.6091 11.218ZM17.6034 9.734C17.0849 9.59965 16.542 9.52637 15.9869 9.52637C15.4196 9.52637 14.8706 9.59965 14.3521 9.734C11.5767 10.4607 9.5332 12.9829 9.5332 15.9874C9.5332 19.3951 12.1623 22.1859 15.4989 22.4302C15.6575 22.4424 15.8222 22.4485 15.9869 22.4485C16.1455 22.4485 16.298 22.4424 16.4505 22.4302C19.7993 22.192 22.4406 19.3951 22.4406 15.9813C22.4406 12.9829 20.3849 10.4546 17.6034 9.734ZM16.6091 11.218C13.6323 11.218 11.2168 13.6363 11.2168 16.6164C11.2168 17.9477 11.6987 19.1691 12.4978 20.1096C11.3327 19.1203 10.5946 17.6424 10.5946 15.9935C10.5946 13.0134 13.0101 10.5951 15.9869 10.5951C17.6339 10.5951 19.11 11.334 20.0982 12.5004C19.1588 11.7004 17.9389 11.218 16.6091 11.218ZM17.6034 9.734C17.0849 9.59965 16.542 9.52637 15.9869 9.52637C15.4196 9.52637 14.8706 9.59965 14.3521 9.734C11.5767 10.4607 9.5332 12.9829 9.5332 15.9874C9.5332 19.3951 12.1623 22.1859 15.4989 22.4302C15.6575 22.4424 15.8222 22.4485 15.9869 22.4485C16.1455 22.4485 16.298 22.4424 16.4505 22.4302C19.7993 22.192 22.4406 19.3951 22.4406 15.9813C22.4406 12.9829 20.3849 10.4546 17.6034 9.734ZM16.6091 11.218C13.6323 11.218 11.2168 13.6363 11.2168 16.6164C11.2168 17.9477 11.6987 19.1691 12.4978 20.1096C11.3327 19.1203 10.5946 17.6424 10.5946 15.9935C10.5946 13.0134 13.0101 10.5951 15.9869 10.5951C17.6339 10.5951 19.11 11.334 20.0982 12.5004C19.1588 11.7004 17.9389 11.218 16.6091 11.218ZM17.6034 9.734C17.0849 9.59965 16.542 9.52637 15.9869 9.52637C15.4196 9.52637 14.8706 9.59965 14.3521 9.734C11.5767 10.4607 9.5332 12.9829 9.5332 15.9874C9.5332 19.3951 12.1623 22.1859 15.4989 22.4302C15.6575 22.4424 15.8222 22.4485 15.9869 22.4485C16.1455 22.4485 16.298 22.4424 16.4505 22.4302C19.7993 22.192 22.4406 19.3951 22.4406 15.9813C22.4406 12.9829 20.3849 10.4546 17.6034 9.734ZM16.6091 11.218C13.6323 11.218 11.2168 13.6363 11.2168 16.6164C11.2168 17.9477 11.6987 19.1691 12.4978 20.1096C11.3327 19.1203 10.5946 17.6424 10.5946 15.9935C10.5946 13.0134 13.0101 10.5951 15.9869 10.5951C17.6339 10.5951 19.11 11.334 20.0982 12.5004C19.1588 11.7004 17.9389 11.218 16.6091 11.218ZM17.6034 9.734C17.0849 9.59965 16.542 9.52637 15.9869 9.52637C15.4196 9.52637 14.8706 9.59965 14.3521 9.734C11.5767 10.4607 9.5332 12.9829 9.5332 15.9874C9.5332 19.3951 12.1623 22.1859 15.4989 22.4302C15.6575 22.4424 15.8222 22.4485 15.9869 22.4485C16.1455 22.4485 16.298 22.4424 16.4505 22.4302C19.7993 22.192 22.4406 19.3951 22.4406 15.9813C22.4406 12.9829 20.3849 10.4546 17.6034 9.734ZM16.6091 11.218C13.6323 11.218 11.2168 13.6363 11.2168 16.6164C11.2168 17.9477 11.6987 19.1691 12.4978 20.1096C11.3327 19.1203 10.5946 17.6424 10.5946 15.9935C10.5946 13.0134 13.0101 10.5951 15.9869 10.5951C17.6339 10.5951 19.11 11.334 20.0982 12.5004C19.1588 11.7004 17.9389 11.218 16.6091 11.218ZM17.6034 9.734C17.0849 9.59965 16.542 9.52637 15.9869 9.52637C15.4196 9.52637 14.8706 9.59965 14.3521 9.734C11.5767 10.4607 9.5332 12.9829 9.5332 15.9874C9.5332 19.3951 12.1623 22.1859 15.4989 22.4302C15.6575 22.4424 15.8222 22.4485 15.9869 22.4485C16.1455 22.4485 16.298 22.4424 16.4505 22.4302C19.7993 22.192 22.4406 19.3951 22.4406 15.9813C22.4406 12.9829 20.3849 10.4546 17.6034 9.734ZM16.6091 11.218C13.6323 11.218 11.2168 13.6363 11.2168 16.6164C11.2168 17.9477 11.6987 19.1691 12.4978 20.1096C11.3327 19.1203 10.5946 17.6424 10.5946 15.9935C10.5946 13.0134 13.0101 10.5951 15.9869 10.5951C17.6339 10.5951 19.11 11.334 20.0982 12.5004C19.1588 11.7004 17.9389 11.218 16.6091 11.218ZM17.6034 9.734C17.0849 9.59965 16.542 9.52637 15.9869 9.52637C15.4196 9.52637 14.8706 9.59965 14.3521 9.734C11.5767 10.4607 9.5332 12.9829 9.5332 15.9874C9.5332 19.3951 12.1623 22.1859 15.4989 22.4302C15.6575 22.4424 15.8222 22.4485 15.9869 22.4485C16.1455 22.4485 16.298 22.4424 16.4505 22.4302C19.7993 22.192 22.4406 19.3951 22.4406 15.9813C22.4406 12.9829 20.3849 10.4546 17.6034 9.734ZM16.6091 11.218C13.6323 11.218 11.2168 13.6363 11.2168 16.6164C11.2168 17.9477 11.6987 19.1691 12.4978 20.1096C11.3327 19.1203 10.5946 17.6424 10.5946 15.9935C10.5946 13.0134 13.0101 10.5951 15.9869 10.5951C17.6339 10.5951 19.11 11.334 20.0982 12.5004C19.1588 11.7004 17.9389 11.218 16.6091 11.218ZM17.6034 9.734C17.0849 9.59965 16.542 9.52637 15.9869 9.52637C15.4196 9.52637 14.8706 9.59965 14.3521 9.734C11.5767 10.4607 9.5332 12.9829 9.5332 15.9874C9.5332 19.3951 12.1623 22.1859 15.4989 22.4302C15.6575 22.4424 15.8222 22.4485 15.9869 22.4485C16.1455 22.4485 16.298 22.4424 16.4505 22.4302C19.7993 22.192 22.4406 19.3951 22.4406 15.9813C22.4406 12.9829 20.3849 10.4546 17.6034 9.734ZM16.6091 11.218C13.6323 11.218 11.2168 13.6363 11.2168 16.6164C11.2168 17.9477 11.6987 19.1691 12.4978 20.1096C11.3327 19.1203 10.5946 17.6424 10.5946 15.9935C10.5946 13.0134 13.0101 10.5951 15.9869 10.5951C17.6339 10.5951 19.11 11.334 20.0982 12.5004C19.1588 11.7004 17.9389 11.218 16.6091 11.218ZM17.6034 9.734C17.0849 9.59965 16.542 9.52637 15.9869 9.52637C15.4196 9.52637 14.8706 9.59965 14.3521 9.734C11.5767 10.4607 9.5332 12.9829 9.5332 15.9874C9.5332 19.3951 12.1623 22.1859 15.4989 22.4302C15.6575 22.4424 15.8222 22.4485 15.9869 22.4485C16.1455 22.4485 16.298 22.4424 16.4505 22.4302C19.7993 22.192 22.4406 19.3951 22.4406 15.9813C22.4406 12.9829 20.3849 10.4546 17.6034 9.734ZM16.6091 11.218C13.6323 11.218 11.2168 13.6363 11.2168 16.6164C11.2168 17.9477 11.6987 19.1691 12.4978 20.1096C11.3327 19.1203 10.5946 17.6424 10.5946 15.9935C10.5946 13.0134 13.0101 10.5951 15.9869 10.5951C17.6339 10.5951 19.11 11.334 20.0982 12.5004C19.1588 11.7004 17.9389 11.218 16.6091 11.218ZM17.6034 9.734C17.0849 9.59965 16.542 9.52637 15.9869 9.52637C15.4196 9.52637 14.8706 9.59965 14.3521 9.734C11.5767 10.4607 9.5332 12.9829 9.5332 15.9874C9.5332 19.3951 12.1623 22.1859 15.4989 22.4302C15.6575 22.4424 15.8222 22.4485 15.9869 22.4485C16.1455 22.4485 16.298 22.4424 16.4505 22.4302C19.7993 22.192 22.4406 19.3951 22.4406 15.9813C22.4406 12.9829 20.3849 10.4546 17.6034 9.734ZM16.6091 11.218C13.6323 11.218 11.2168 13.6363 11.2168 16.6164C11.2168 17.9477 11.6987 19.1691 12.4978 20.1096C11.3327 19.1203 10.5946 17.6424 10.5946 15.9935C10.5946 13.0134 13.0101 10.5951 15.9869 10.5951C17.6339 10.5951 19.11 11.334 20.0982 12.5004C19.1588 11.7004 17.9389 11.218 16.6091 11.218ZM17.6034 9.734C17.0849 9.59965 16.542 9.52637 15.9869 9.52637C15.4196 9.52637 14.8706 9.59965 14.3521 9.734C11.5767 10.4607 9.5332 12.9829 9.5332 15.9874C9.5332 19.3951 12.1623 22.1859 15.4989 22.4302C15.6575 22.4424 15.8222 22.4485 15.9869 22.4485C16.1455 22.4485 16.298 22.4424 16.4505 22.4302C19.7993 22.192 22.4406 19.3951 22.4406 15.9813C22.4406 12.9829 20.3849 10.4546 17.6034 9.734ZM16.6091 11.218C13.6323 11.218 11.2168 13.6363 11.2168 16.6164C11.2168 17.9477 11.6987 19.1691 12.4978 20.1096C11.3327 19.1203 10.5946 17.6424 10.5946 15.9935C10.5946 13.0134 13.0101 10.5951 15.9869 10.5951C17.6339 10.5951 19.11 11.334 20.0982 12.5004C19.1588 11.7004 17.9389 11.218 16.6091 11.218ZM17.6034 9.734C17.0849 9.59965 16.542 9.52637 15.9869 9.52637C15.4196 9.52637 14.8706 9.59965 14.3521 9.734C11.5767 10.4607 9.5332 12.9829 9.5332 15.9874C9.5332 19.3951 12.1623 22.1859 15.4989 22.4302C15.6575 22.4424 15.8222 22.4485 15.9869 22.4485C16.1455 22.4485 16.298 22.4424 16.4505 22.4302C19.7993 22.192 22.4406 19.3951 22.4406 15.9813C22.4406 12.9829 20.3849 10.4546 17.6034 9.734ZM16.6091 11.218C13.6323 11.218 11.2168 13.6363 11.2168 16.6164C11.2168 17.9477 11.6987 19.1691 12.4978 20.1096C11.3327 19.1203 10.5946 17.6424 10.5946 15.9935C10.5946 13.0134 13.0101 10.5951 15.9869 10.5951C17.6339 10.5951 19.11 11.334 20.0982 12.5004C19.1588 11.7004 17.9389 11.218 16.6091 11.218ZM17.6034 9.734C17.0849 9.59965 16.542 9.52637 15.9869 9.52637C15.4196 9.52637 14.8706 9.59965 14.3521 9.734C11.5767 10.4607 9.5332 12.9829 9.5332 15.9874C9.5332 19.3951 12.1623 22.1859 15.4989 22.4302C15.6575 22.4424 15.8222 22.4485 15.9869 22.4485C16.1455 22.4485 16.298 22.4424 16.4505 22.4302C19.7993 22.192 22.4406 19.3951 22.4406 15.9813C22.4406 12.9829 20.3849 10.4546 17.6034 9.734ZM16.6091 11.218C13.6323 11.218 11.2168 13.6363 11.2168 16.6164C11.2168 17.9477 11.6987 19.1691 12.4978 20.1096C11.3327 19.1203 10.5946 17.6424 10.5946 15.9935C10.5946 13.0134 13.0101 10.5951 15.9869 10.5951C17.6339 10.5951 19.11 11.334 20.0982 12.5004C19.1588 11.7004 17.9389 11.218 16.6091 11.218ZM17.6034 9.734C17.0849 9.59965 16.542 9.52637 15.9869 9.52637C15.4196 9.52637 14.8706 9.59965 14.3521 9.734C11.5767 10.4607 9.5332 12.9829 9.5332 15.9874C9.5332 19.3951 12.1623 22.1859 15.4989 22.4302C15.6575 22.4424 15.8222 22.4485 15.9869 22.4485C16.1455 22.4485 16.298 22.4424 16.4505 22.4302C19.7993 22.192 22.4406 19.3951 22.4406 15.9813C22.4406 12.9829 20.3849 10.4546 17.6034 9.734ZM16.6091 11.218C13.6323 11.218 11.2168 13.6363 11.2168 16.6164C11.2168 17.9477 11.6987 19.1691 12.4978 20.1096C11.3327 19.1203 10.5946 17.6424 10.5946 15.9935C10.5946 13.0134 13.0101 10.5951 15.9869 10.5951C17.6339 10.5951 19.11 11.334 20.0982 12.5004C19.1588 11.7004 17.9389 11.218 16.6091 11.218ZM17.6034 9.734C17.0849 9.59965 16.542 9.52637 15.9869 9.52637C15.4196 9.52637 14.8706 9.59965 14.3521 9.734C11.5767 10.4607 9.5332 12.9829 9.5332 15.9874C9.5332 19.3951 12.1623 22.1859 15.4989 22.4302C15.6575 22.4424 15.8222 22.4485 15.9869 22.4485C16.1455 22.4485 16.298 22.4424 16.4505 22.4302C19.7993 22.192 22.4406 19.3951 22.4406 15.9813C22.4406 12.9829 20.3849 10.4546 17.6034 9.734ZM16.6091 11.218C13.6323 11.218 11.2168 13.6363 11.2168 16.6164C11.2168 17.9477 11.6987 19.1691 12.4978 20.1096C11.3327 19.1203 10.5946 17.6424 10.5946 15.9935C10.5946 13.0134 13.0101 10.5951 15.9869 10.5951C17.6339 10.5951 19.11 11.334 20.0982 12.5004C19.1588 11.7004 17.9389 11.218 16.6091 11.218ZM17.6034 9.734C17.0849 9.59965 16.542 9.52637 15.9869 9.52637C15.4196 9.52637 14.8706 9.59965 14.3521 9.734C11.5767 10.4607 9.5332 12.9829 9.5332 15.9874C9.5332 19.3951 12.1623 22.1859 15.4989 22.4302C15.6575 22.4424 15.8222 22.4485 15.9869 22.4485C16.1455 22.4485 16.298 22.4424 16.4505 22.4302C19.7993 22.192 22.4406 19.3951 22.4406 15.9813C22.4406 12.9829 20.3849 10.4546 17.6034 9.734ZM16.6091 11.218C13.6323 11.218 11.2168 13.6363 11.2168 16.6164C11.2168 17.9477 11.6987 19.1691 12.4978 20.1096C11.3327 19.1203 10.5946 17.6424 10.5946 15.9935C10.5946 13.0134 13.0101 10.5951 15.9869 10.5951C17.6339 10.5951 19.11 11.334 20.0982 12.5004C19.1588 11.7004 17.9389 11.218 16.6091 11.218ZM17.6034 9.734C17.0849 9.59965 16.542 9.52637 15.9869 9.52637C15.4196 9.52637 14.8706 9.59965 14.3521 9.734C11.5767 10.4607 9.5332 12.9829 9.5332 15.9874C9.5332 19.3951 12.1623 22.1859 15.4989 22.4302C15.6575 22.4424 15.8222 22.4485 15.9869 22.4485C16.1455 22.4485 16.298 22.4424 16.4505 22.4302C19.7993 22.192 22.4406 19.3951 22.4406 15.9813C22.4406 12.9829 20.3849 10.4546 17.6034 9.734ZM16.6091 11.218C13.6323 11.218 11.2168 13.6363 11.2168 16.6164C11.2168 17.9477 11.6987 19.1691 12.4978 20.1096C11.3327 19.1203 10.5946 17.6424 10.5946 15.9935C10.5946 13.0134 13.0101 10.5951 15.9869 10.5951C17.6339 10.5951 19.11 11.334 20.0982 12.5004C19.1588 11.7004 17.9389 11.218 16.6091 11.218ZM17.6034 9.734C17.0849 9.59965 16.542 9.52637 15.9869 9.52637C15.4196 9.52637 14.8706 9.59965 14.3521 9.734C11.5767 10.4607 9.5332 12.9829 9.5332 15.9874C9.5332 19.3951 12.1623 22.1859 15.4989 22.4302C15.6575 22.4424 15.8222 22.4485 15.9869 22.4485C16.1455 22.4485 16.298 22.4424 16.4505 22.4302C19.7993 22.192 22.4406 19.3951 22.4406 15.9813C22.4406 12.9829 20.3849 10.4546 17.6034 9.734ZM16.6091 11.218C13.6323 11.218 11.2168 13.6363 11.2168 16.6164C11.2168 17.9477 11.6987 19.1691 12.4978 20.1096C11.3327 19.1203 10.5946 17.6424 10.5946 15.9935C10.5946 13.0134 13.0101 10.5951 15.9869 10.5951C17.6339 10.5951 19.11 11.334 20.0982 12.5004C19.1588 11.7004 17.9389 11.218 16.6091 11.218ZM17.6034 9.734C17.0849 9.59965 16.542 9.52637 15.9869 9.52637C15.4196 9.52637 14.8706 9.59965 14.3521 9.734C11.5767 10.4607 9.5332 12.9829 9.5332 15.9874C9.5332 19.3951 12.1623 22.1859 15.4989 22.4302C15.6575 22.4424 15.8222 22.4485 15.9869 22.4485C16.1455 22.4485 16.298 22.4424 16.4505 22.4302C19.7993 22.192 22.4406 19.3951 22.4406 15.9813C22.4406 12.9829 20.3849 10.4546 17.6034 9.734ZM16.6091 11.218C13.6323 11.218 11.2168 13.6363 11.2168 16.6164C11.2168 17.9477 11.6987 19.1691 12.4978 20.1096C11.3327 19.1203 10.5946 17.6424 10.5946 15.9935C10.5946 13.0134 13.0101 10.5951 15.9869 10.5951C17.6339 10.5951 19.11 11.334 20.0982 12.5004C19.1588 11.7004 17.9389 11.218 16.6091 11.218ZM17.6034 9.734C17.0849 9.59965 16.542 9.52637 15.9869 9.52637C15.4196 9.52637 14.8706 9.59965 14.3521 9.734C11.5767 10.4607 9.5332 12.9829 9.5332 15.9874C9.5332 19.3951 12.1623 22.1859 15.4989 22.4302C15.6575 22.4424 15.8222 22.4485 15.9869 22.4485C16.1455 22.4485 16.298 22.4424 16.4505 22.4302C19.7993 22.192 22.4406 19.3951 22.4406 15.9813C22.4406 12.9829 20.3849 10.4546 17.6034 9.734ZM16.6091 11.218C13.6323 11.218 11.2168 13.6363 11.2168 16.6164C11.2168 17.9477 11.6987 19.1691 12.4978 20.1096C11.3327 19.1203 10.5946 17.6424 10.5946 15.9935C10.5946 13.0134 13.0101 10.5951 15.9869 10.5951C17.6339 10.5951 19.11 11.334 20.0982 12.5004C19.1588 11.7004 17.9389 11.218 16.6091 11.218ZM17.6034 9.734C17.0849 9.59965 16.542 9.52637 15.9869 9.52637C15.4196 9.52637 14.8706 9.59965 14.3521 9.734C11.5767 10.4607 9.5332 12.9829 9.5332 15.9874C9.5332 19.3951 12.1623 22.1859 15.4989 22.4302C15.6575 22.4424 15.8222 22.4485 15.9869 22.4485C16.1455 22.4485 16.298 22.4424 16.4505 22.4302C19.7993 22.192 22.4406 19.3951 22.4406 15.9813C22.4406 12.9829 20.3849 10.4546 17.6034 9.734ZM16.6091 11.218C13.6323 11.218 11.2168 13.6363 11.2168 16.6164C11.2168 17.9477 11.6987 19.1691 12.4978 20.1096C11.3327 19.1203 10.5946 17.6424 10.5946 15.9935C10.5946 13.0134 13.0101 10.5951 15.9869 10.5951C17.6339 10.5951 19.11 11.334 20.0982 12.5004C19.1588 11.7004 17.9389 11.218 16.6091 11.218ZM17.6034 9.734C17.0849 9.59965 16.542 9.52637 15.9869 9.52637C15.4196 9.52637 14.8706 9.59965 14.3521 9.734C11.5767 10.4607 9.5332 12.9829 9.5332 15.9874C9.5332 19.3951 12.1623 22.1859 15.4989 22.4302C15.6575 22.4424 15.8222 22.4485 15.9869 22.4485C16.1455 22.4485 16.298 22.4424 16.4505 22.4302C19.7993 22.192 22.4406 19.3951 22.4406 15.9813C22.4406 12.9829 20.3849 10.4546 17.6034 9.734ZM16.6091 11.218C13.6323 11.218 11.2168 13.6363 11.2168 16.6164C11.2168 17.9477 11.6987 19.1691 12.4978 20.1096C11.3327 19.1203 10.5946 17.6424 10.5946 15.9935C10.5946 13.0134 13.0101 10.5951 15.9869 10.5951C17.6339 10.5951 19.11 11.334 20.0982 12.5004C19.1588 11.7004 17.9389 11.218 16.6091 11.218Z" fill="#252733"/>
<defs>
<linearGradient id="paint0_linear_974_15335" x1="16" y1="0" x2="16" y2="32" gradientUnits="userSpaceOnUse">
<stop stop-color="#00A171"/>
<stop offset="1" stop-color="#007CC3"/>
</linearGradient>
</defs>
</svg>
