<svg width="24" height="24" viewBox="0 0 24 24" fill="none" xmlns="http://www.w3.org/2000/svg">
<g clip-path="url(#clip0_739_11755)">
<path d="M19.5 10.25H4.5C4.08579 10.25 3.75 10.5858 3.75 11V21.5C3.75 21.9142 4.08579 22.25 4.5 22.25H19.5C19.9142 22.25 20.25 21.9142 20.25 21.5V11C20.25 10.5858 19.9142 10.25 19.5 10.25Z" stroke="#95A7B7" stroke-linecap="round" stroke-linejoin="round"/>
<path d="M8.625 10.25V6.875C8.625 5.97989 8.98058 5.12145 9.61351 4.48851C10.2465 3.85558 11.1049 3.5 12 3.5C12.8951 3.5 13.7535 3.85558 14.3865 4.48851C15.0194 5.12145 15.375 5.97989 15.375 6.875V10.25" stroke="#95A7B7" stroke-linecap="round" stroke-linejoin="round"/>
<path d="M12 17.375C12.6213 17.375 13.125 16.8713 13.125 16.25C13.125 15.6287 12.6213 15.125 12 15.125C11.3787 15.125 10.875 15.6287 10.875 16.25C10.875 16.8713 11.3787 17.375 12 17.375Z" fill="#95A7B7"/>
</g>
<defs>
<clipPath id="clip0_739_11755">
<rect width="24" height="24" fill="white"/>
</clipPath>
</defs>
</svg>
