<svg width="16" height="16" viewBox="0 0 16 16" fill="none" xmlns="http://www.w3.org/2000/svg">
<path d="M14.0844 6.72645C14.0926 6.72524 14.1009 6.72431 14.109 6.72269C14.1178 6.72096 14.1263 6.71856 14.1349 6.71637C14.1421 6.71455 14.1493 6.71298 14.1564 6.71083C14.1648 6.7083 14.1729 6.70517 14.1811 6.70221C14.1883 6.69961 14.1955 6.69725 14.2027 6.69431C14.2102 6.69118 14.2175 6.68751 14.2248 6.68403C14.2323 6.68051 14.2398 6.67721 14.2471 6.67331C14.254 6.66958 14.2606 6.66534 14.2674 6.6613C14.2747 6.65697 14.282 6.65287 14.2891 6.64814C14.2964 6.64325 14.3033 6.6378 14.3103 6.63253C14.3163 6.62802 14.3225 6.62382 14.3284 6.619C14.34 6.60944 14.3512 6.59929 14.3619 6.58874C14.3629 6.58775 14.364 6.58692 14.365 6.58591C14.3663 6.58463 14.3674 6.58321 14.3686 6.58192C14.3788 6.57147 14.3887 6.5607 14.398 6.5494C14.4032 6.54311 14.4077 6.53649 14.4125 6.53002C14.4174 6.52341 14.4225 6.51698 14.4271 6.51012C14.4322 6.50258 14.4366 6.49475 14.4412 6.487C14.4449 6.48075 14.4488 6.47466 14.4523 6.46823C14.4565 6.46036 14.4601 6.45227 14.4638 6.44423C14.467 6.43746 14.4704 6.43081 14.4733 6.42388C14.4765 6.41609 14.4791 6.40813 14.4819 6.40022C14.4846 6.39273 14.4875 6.38535 14.4898 6.37769C14.4922 6.36971 14.494 6.36159 14.496 6.35352C14.498 6.34577 14.5001 6.33813 14.5017 6.33024C14.5036 6.32081 14.5047 6.31129 14.5061 6.30178C14.507 6.29512 14.5083 6.28859 14.5089 6.28186C14.5106 6.26531 14.5114 6.24868 14.5114 6.23204V3.23236C14.5114 3.09976 14.4588 2.97258 14.365 2.87881C14.2712 2.78504 14.144 2.73236 14.0114 2.73236C13.8788 2.73236 13.7516 2.78504 13.6579 2.87881C13.5641 2.97258 13.5114 3.09976 13.5114 3.23236V5.02524L12.2437 3.75748C11.4047 2.91932 10.3361 2.3487 9.17293 2.11776C8.00974 1.88681 6.8042 2.0059 5.70868 2.45998C4.61316 2.91406 3.67686 3.68274 3.01813 4.66885C2.3594 5.65496 2.00781 6.81423 2.00781 8.00013C2.00781 9.18602 2.3594 10.3453 3.01813 11.3314C3.67686 12.3175 4.61316 13.0862 5.70868 13.5403C6.8042 13.9943 8.00974 14.1134 9.17293 13.8825C10.3361 13.6515 11.4047 13.0809 12.2437 12.2428C12.2902 12.1964 12.327 12.1412 12.3522 12.0805C12.3774 12.0199 12.3903 11.9548 12.3904 11.8891C12.3904 11.8234 12.3775 11.7584 12.3523 11.6977C12.3272 11.637 12.2904 11.5818 12.2439 11.5354C12.1974 11.4889 12.1423 11.4521 12.0816 11.427C12.0209 11.4018 11.9558 11.3889 11.8902 11.389C11.8245 11.389 11.7594 11.402 11.6987 11.4271C11.6381 11.4523 11.5829 11.4892 11.5365 11.5357C10.8373 12.2349 9.94634 12.7111 8.97643 12.9041C8.00653 13.097 7.0012 12.998 6.08757 12.6195C5.17394 12.2411 4.39305 11.6002 3.84364 10.778C3.29424 9.95573 3.00099 8.98903 3.00099 8.00013C3.00099 7.01122 3.29424 6.04452 3.84364 5.22228C4.39305 4.40003 5.17394 3.75917 6.08757 3.38073C7.0012 3.00229 8.00653 2.90327 8.97643 3.09619C9.94634 3.28911 10.8373 3.76531 11.5365 4.46457L12.8043 5.73236H11.0114C10.8788 5.73236 10.7516 5.78504 10.6579 5.87881C10.5641 5.97258 10.5114 6.09976 10.5114 6.23236C10.5114 6.36497 10.5641 6.49215 10.6579 6.58592C10.7516 6.67969 10.8788 6.73236 11.0114 6.73236H14.0114C14.0133 6.73236 14.0151 6.7321 14.017 6.73209C14.0315 6.73193 14.0461 6.73131 14.0606 6.72988C14.0687 6.72909 14.0765 6.72761 14.0844 6.72645Z" fill="#2F80ED"/>
</svg>
