<svg width="40" height="40" viewBox="0 0 40 40" fill="none" xmlns="http://www.w3.org/2000/svg">
<circle cx="20" cy="20" r="19.5" fill-opacity="0.19" />
<path d="M13.8562 29V26.3409L20.0692 20.5881C20.5977 20.0767 21.0408 19.6165 21.3988 19.2074C21.7624 18.7983 22.038 18.3977 22.2255 18.0057C22.413 17.608 22.5067 17.179 22.5067 16.7188C22.5067 16.2074 22.3903 15.767 22.1573 15.3977C21.9244 15.0227 21.6062 14.7358 21.2028 14.5369C20.7994 14.3324 20.342 14.2301 19.8306 14.2301C19.2965 14.2301 18.8306 14.3381 18.4329 14.554C18.0352 14.7699 17.7283 15.0795 17.5124 15.483C17.2965 15.8864 17.1886 16.3665 17.1886 16.9233H13.6857C13.6857 15.7812 13.9442 14.7898 14.4613 13.9489C14.9783 13.108 15.7028 12.4574 16.6346 11.9972C17.5664 11.5369 18.6403 11.3068 19.8562 11.3068C21.1062 11.3068 22.1942 11.5284 23.1204 11.9716C24.0522 12.4091 24.7766 13.017 25.2937 13.7955C25.8107 14.5739 26.0692 15.4659 26.0692 16.4716C26.0692 17.1307 25.9386 17.7812 25.6772 18.4233C25.4215 19.0653 24.9641 19.7784 24.305 20.5625C23.646 21.3409 22.717 22.2756 21.5181 23.3665L18.9698 25.8636V25.983H26.2994V29H13.8562Z" fill="white"/>
</svg>
