<svg width="32" height="32" viewBox="0 0 32 32" fill="none" xmlns="http://www.w3.org/2000/svg">
<path d="M16 0.00341797C24.8352 0.00341797 31.9968 7.16502 31.9968 16.0002C31.9968 24.8354 24.832 31.997 16 31.997C7.16797 31.997 0.00317383 24.8386 0.00317383 16.0002C0.00317383 7.16182 7.16477 0.00341797 16 0.00341797Z" fill="#53AE94"/>
<path d="M17.9745 13.8692V11.4884H23.4177V7.86279H8.59846V11.4884H14.0417V13.866C9.61926 14.0676 6.29126 14.9444 6.29126 15.994C6.29126 17.0436 9.61926 17.9204 14.0417 18.1252V25.7476H17.9777V18.1252C22.3937 17.9204 25.7121 17.0468 25.7121 15.9972C25.7121 14.9476 22.3905 14.074 17.9745 13.8692ZM17.9745 17.4788C17.8625 17.4852 17.2929 17.5172 16.0225 17.5172C15.0081 17.5172 14.2913 17.4884 14.0417 17.4756V17.4788C10.1345 17.306 7.21606 16.6244 7.21606 15.8116C7.21606 14.9988 10.1345 14.3172 14.0417 14.1444V16.8004C14.2977 16.8196 15.0305 16.8612 16.0417 16.8612C17.2545 16.8612 17.8657 16.81 17.9777 16.8004V14.1444C21.8785 14.3172 24.7873 14.9988 24.7873 15.8116C24.7873 16.6212 21.8753 17.3028 17.9745 17.4788Z" fill="white"/>
</svg>
