<svg width="16" height="16" viewBox="0 0 16 16" fill="none" xmlns="http://www.w3.org/2000/svg">
<path d="M8 0C6.41775 0 4.87103 0.469192 3.55544 1.34824C2.23985 2.22729 1.21447 3.47672 0.608967 4.93853C0.00346627 6.40034 -0.15496 8.00887 0.153721 9.56072C0.462403 11.1126 1.22433 12.538 2.34315 13.6569C3.46197 14.7757 4.88743 15.5376 6.43928 15.8463C7.99113 16.155 9.59966 15.9965 11.0615 15.391C12.5233 14.7855 13.7727 13.7602 14.6518 12.4446C15.5308 11.129 16 9.58225 16 8C16 6.94942 15.7931 5.90914 15.391 4.93853C14.989 3.96793 14.3997 3.08601 13.6569 2.34315C12.914 1.60028 12.0321 1.011 11.0615 0.608964C10.0909 0.206926 9.05058 0 8 0ZM5.6432 2.0552C5.3936 3.3408 4.7512 4.3752 4 4C3.788 3.8936 3.5592 3.7704 3.3264 3.6416C3.97227 2.94847 4.76343 2.40674 5.6432 2.0552ZM5.6 10.4C6.2048 11.0048 5.44 12.0664 4.4664 13.3312C3.64549 12.7859 2.96159 12.0585 2.468 11.2055C1.97442 10.3525 1.68448 9.39704 1.6208 8.4136C3.844 7.7096 6.4 7.0952 6.4 8C6.4 9.6 4.8 9.6 5.6 10.4ZM13.28 11.6064C12.48 11.988 11.7464 12.2744 11.2 12C9.6 11.2 11.2 10.4 11.2 8C11.2 5.6 8 8 8 4.8C8 3.5608 9.0808 2.684 10.4 2.0728C11.2862 2.43053 12.0808 2.9825 12.7253 3.68805C13.3698 4.39359 13.8479 5.23475 14.1243 6.14955C14.4006 7.06435 14.4682 8.0295 14.3221 8.97389C14.176 9.91829 13.8199 10.8179 13.28 11.6064Z" fill="#60636E"/>
</svg>
