<svg enable-background="new 0 0 359.6 308.1" viewBox="-250 0 1000 608.1" xmlns="http://www.w3.org/2000/svg">
  <path d="m303.2 217.8c0-101.6-49.5-189.1-87.2-217.5 0 0-2.9-1.6-2.6 2.5-3.1 196.3-103.4 249.5-158.5 321.1-127.2 165.4-9 346.7 111.6 380.2 67.2 18.8-15.6-33.2-26.3-142.9-13.1-132.4 163-233.6 163-343.4z" fill="#1b2143"/>
  <path d="m361 284.7c-.8-.5-1.9-.9-2.6.4-2.1 24.7-27.3 77.5-59.3 126.1-108.5 164.6-46.7 244-11.9 286.7 20.2 24.7 0 0 50.4-25.3 62.3-37.8 102.7-103.2 108.7-175.8 9.9-117-60.3-190.7-85.3-212.1z" fill="#2ca6e0"/>
</svg>
